<svg width="27" height="38" viewBox="0 0 27 38" fill="none" xmlns="http://www.w3.org/2000/svg">
<path d="M25.0988 14.6321C25.0419 14.107 25.1086 13.3553 24.9742 12.9389C24.9742 12.9346 24.972 12.926 24.9693 12.9114C24.6787 14.0649 25.0414 15.3404 24.4414 16.4087C23.9367 17.0826 23.9519 17.8888 24.003 18.6816C24.0346 20.0087 24.1366 21.3384 24.1308 22.6646C23.9652 23.6929 22.9531 22.6607 22.3901 22.8915C21.8444 23.1923 21.3882 22.8163 21.2631 22.2804C20.9494 22.9104 21.2013 23.4368 21.7834 23.7093C22.0153 23.8571 22.0683 24.4398 21.6673 24.3677C20.6405 24.1996 19.8683 24.8507 18.9198 25.0209C19.5536 25.3591 21.3637 24.3333 21.2578 25.5593C21.2039 26.1988 20.2947 25.8413 20.1135 26.4399C20.8105 27.0205 20.4513 28.1271 19.6239 28.3978C16.9566 28.8628 14.3782 27.2147 12.0981 26.0699C10.3716 25.0028 9.46323 23.1411 9.1134 21.2498C8.95629 20.848 10.5928 21.6228 10.8407 21.2361C7.76971 20.9043 6.69173 12.9982 10.8132 15.927C11.1999 16.3632 11.3962 16.9197 11.5226 17.4741C11.5226 17.9631 12.5814 16.771 13.7662 17.41C15.332 17.9309 16.2173 16.4276 17.3638 15.7241C18.3848 15.0236 19.5282 14.4671 20.4411 13.6385C20.847 13.287 19.3635 13.5706 19.1477 13.0244C18.6083 12.4387 17.7724 12.0923 17.0558 12.5947C16.4892 13.0339 15.5742 13.6639 15.4829 14.3304C16.7794 12.8285 17.5748 12.5685 19.2331 13.7752C19.4512 13.841 19.4036 13.9497 19.2901 14.0515C18.987 14.339 18.5744 14.1805 18.2219 14.0945C17.293 13.6987 16.1269 13.9712 16.0134 15.043C16.2711 14.5612 17.6834 13.9634 17.8111 14.6265C16.5827 15.5037 15.6129 17.3318 13.8468 16.9064C13.2388 16.7345 12.4288 16.5243 12.0896 16.0065C12.9798 16.3967 14.2825 16.6941 14.9951 15.8801C11.7425 17.401 11.3419 12.0833 8.92291 13.6626C9.89362 13.556 11.5084 15.2682 9.96884 14.8479C8.77915 14.4181 8.09017 16.0443 6.99884 15.4306C5.97293 14.6351 7.61883 15.3803 7.83024 14.7039C7.94774 14.5569 7.84181 14.446 7.68203 14.526C6.56488 14.8199 6.41267 14.4976 5.6547 13.9982C5.64535 14.1465 5.93821 14.6493 5.62933 14.5939C5.37074 14.6085 4.5745 13.9493 4.90207 14.4615C5.49981 15.1272 6.96768 15.7482 6.54886 16.7822C6.07619 16.1444 6.02678 16.101 5.67206 16.0297C5.88213 16.428 6.07886 16.8178 6.05616 17.2712C5.59773 16.8372 5.51361 16.0228 4.73561 15.856C4.42717 15.7469 4.00747 15.4057 4.07779 15.0825C4.56114 15.3949 4.8816 15.5664 5.30798 15.4358C4.74229 14.9708 3.94026 14.706 3.84368 13.7726C3.91533 13.4464 3.09995 12.1989 3.49429 12.2487C3.77939 12.4181 3.9968 12.6756 4.11117 12.9793C5.5096 14.7769 5.08589 13.2058 4.25493 12.3063C3.991 11.8379 2.36468 10.6973 2.47195 11.8018C2.81599 12.8392 3.30558 13.9394 2.93038 15.0365C2.34109 16.343 2.0696 14.3489 1.9788 13.8332C1.84973 13.4787 1.93429 12.9346 1.70686 12.6785C1.54173 12.8787 1.61784 13.2586 1.60315 13.5195C1.94097 15.3885 1.46963 18.1922 2.95619 19.8329C3.16182 20.9967 3.73775 22.0281 4.91142 22.5833C5.51762 23.6577 5.11527 25.2409 5.10681 26.4756C4.90786 28.9776 3.32516 30.9548 1.92584 32.9579C-1.57693 39.8283 3.37011 32.1908 10.1455 34.5841C13.2095 35.5764 15.9672 37.374 19.1922 37.9052C21.9788 38.6624 14.9194 34.6601 14.627 33.8724C14.2087 32.4972 14.9777 30.8848 15.0846 29.4516C15.1705 29.0064 15.0717 28.9875 15.6632 29.0132C16.9726 29.082 18.3011 29.1559 19.5977 28.9174C21.7274 28.562 20.2065 26.6505 21.2587 26.1747C21.8333 26.0591 21.5996 25.4377 21.6375 25.0574C21.7029 24.8812 21.949 24.9229 22.1066 24.8395C22.7297 24.5662 21.9054 23.4991 22.8423 23.4948C23.6301 23.6087 24.6733 23.6354 24.5598 22.5704C24.5532 21.0809 24.4063 19.5962 24.3952 18.1066C24.3725 16.8844 25.3436 15.8956 25.0988 14.6321ZM4.85445 20.949C3.87216 20.1952 2.69004 19.4479 2.89611 18.0641C3.29668 18.6963 3.45023 19.3297 4.11028 19.7599C4.3386 19.8471 5.40724 21.1965 4.85445 20.949ZM5.20784 19.5429C4.19084 19.3044 3.77425 18.4573 3.54815 17.5454C3.52545 17.0013 2.04245 15.431 3.45913 16.3481C3.54815 16.4182 3.58865 16.5428 3.72039 16.5583C3.78003 16.3924 3.40884 15.8707 3.77068 16.055C5.11304 16.7426 4.26027 18.3176 5.2163 19.2395C5.36495 19.3392 5.53586 19.6456 5.20784 19.5429ZM14.3831 28.932C14.0355 30.3828 13.8397 31.859 13.578 33.3249C12.9811 33.832 11.8422 32.9313 11.3081 32.5312C10.4072 31.8973 7.59212 28.1752 8.92825 31.4998C8.96475 31.8436 9.63414 32.795 9.03774 32.8427C6.82125 31.6931 6.60361 28.4593 7.55385 26.4279C8.03631 25.5589 9.04664 25.7248 9.72494 26.2775C11.0562 27.479 13.0216 28.0003 14.3831 28.932ZM16.0094 15.0464C16.0139 15.0464 16.0175 15.0464 16.0139 15.04C16.012 15.0421 16.0102 15.0444 16.0086 15.0468L16.0094 15.0464ZM5.02892 13.8345H5.03426C5.03426 13.8345 5.03026 13.8315 5.02892 13.8345Z" fill="#0D0D0D"/>
<path d="M26.1074 9.16916C25.6089 8.04622 24.915 6.6302 23.4547 6.60227C23.2865 6.61989 23.217 6.50815 23.2215 6.35946C23.2869 4.98426 17.5356 8.47468 16.6557 8.67065C15.9169 8.94268 17.9602 7.29244 18.1151 7.0621C19.7352 5.71484 21.118 3.56309 23.2629 3.0577C23.4827 3.16987 23.5793 3.01473 23.5704 2.80673C23.918 1.55143 22.5356 0.979866 21.4648 0.875007C20.393 0.871569 19.9875 2.15781 19.3871 2.83423C19.2211 3.11486 19.0435 3.38603 18.7404 3.06673C17.6723 2.38557 16.6201 1.65844 15.2942 1.54584C16.2266 1.98978 17.5743 2.38557 17.9282 3.32887C17.6331 3.19995 17.4123 2.87935 17.0687 2.89912C17.2214 3.05297 17.5663 3.96275 17.2183 3.64517C16.7047 2.83337 15.8158 2.35076 14.9346 1.99235C13.3799 1.39071 12.5632 3.36067 9.47525 3.04309C11.3993 3.94255 13.8059 1.80627 15.669 3.26484C15.6147 2.87334 15.0957 2.81145 14.9048 2.49688C16.0468 2.64385 16.4038 3.73584 17.0816 4.47372C17.6322 5.15616 17.1026 4.69504 16.722 4.57901C16.9032 4.95547 17.4284 5.35256 17.2316 5.7475C17.0224 6.00234 16.0548 4.16559 15.4326 4.01131C14.1949 3.15611 12.6602 3.50679 11.39 4.10113C10.0343 4.73114 8.79829 3.13463 7.46305 3.79042C6.39932 4.06675 5.99429 5.39811 5.00889 5.61557C2.59256 5.52661 6.02278 4.62714 6.34858 3.87551C6.70464 3.4376 7.23161 3.25667 7.6709 2.93565C7.27033 2.85701 6.96501 3.15053 6.59827 3.17287C6.91694 2.5188 7.82312 2.27556 8.52857 2.20422C9.32971 2.13632 10.1242 2.29962 10.924 2.32369C15.5368 1.70915 11.0406 0.643802 9.25449 1.25705C9.87092 1.33742 10.4384 1.41348 10.9164 1.75041C8.92424 1.46849 6.60628 1.73021 5.6814 3.75991C5.45619 4.33062 4.69645 4.20599 4.38356 4.70536C3.82053 5.41315 3.38525 6.20389 2.88943 6.95294C2.55295 7.79998 1.05482 10.0403 2.24318 11.0656C2.54672 10.4975 3.01939 10.0523 3.76757 10.3432C5.0583 11.1267 3.96607 9.26456 3.20232 9.63415C1.46652 10.4455 3.46225 8.95858 3.77692 8.60275C3.30647 8.6728 2.98824 9.07547 2.5663 9.19451C2.82489 7.85628 3.61713 7.19661 4.72226 6.38525C5.49536 5.61685 5.87101 7.83393 6.62987 6.66329C7.06248 5.74922 8.209 5.52661 8.9189 5.05904C8.26909 5.0238 7.64954 5.31345 7.12034 5.65209C7.06515 5.6869 7.01174 5.7591 6.91383 5.66928C7.75947 4.42301 8.70972 4.18751 10.1282 4.69719C11.8195 4.9443 12.1235 3.51925 14.0413 4.90777C14.4365 5.17937 16.6508 6.90524 15.782 7.1777C14.4713 7.5215 13.5664 5.07795 12.188 5.8313C11.0895 6.9856 10.2626 7.6977 8.55082 7.16567C6.87332 7.10636 7.26989 8.22844 5.01735 7.49314C4.61678 7.5894 4.12408 7.72434 3.88774 8.05181C4.76766 7.96328 5.68007 7.86143 6.2738 8.67881C6.75671 9.37415 7.81778 9.59504 8.40128 8.84126C8.05857 8.95127 7.13636 9.05613 7.16886 8.64959C7.48366 8.58914 7.76289 8.41538 7.94997 8.16355C8.35721 7.62335 9.06266 8.10983 9.58429 8.21383C11.0566 8.74843 11.3815 6.57176 12.6656 6.56402C13.173 6.61215 13.7084 6.82187 14.0453 7.20263C13.4195 7.1416 12.7395 6.85883 12.1724 7.3019C11.7994 7.68438 13.4133 7.22497 13.4814 7.72692C12.4372 7.80428 11.1025 7.84811 10.3458 8.5761C11.398 8.13346 12.1453 9.22674 13.1734 8.99296C10.4139 8.19492 13.2014 7.61304 14.1926 8.46351C16.2845 7.84811 17.8325 5.70409 19.1205 4.02721C20.061 3.062 20.819 0.775305 22.4319 1.98677C22.877 2.19562 20.0022 4.44493 19.7023 4.96536C18.4293 6.23011 17.1466 7.50818 15.6316 8.50649C15.0579 8.96761 14.2198 9.15927 13.6599 9.49491C15.3098 9.83484 16.8644 8.88853 18.3741 8.37971C20.3939 7.84295 23.4093 5.86525 24.9862 8.04923C25.6645 8.87134 25.9854 10.112 25.689 11.1344C25.6142 11.2457 25.7153 11.3364 25.831 11.2556C26.2529 11.1396 26.2792 9.49319 26.1074 9.16916ZM10.9164 1.75041C10.9235 1.75041 10.8946 1.76631 10.895 1.76717L10.9164 1.75041ZM16.4799 6.56402C15.4718 5.70452 14.737 4.28635 13.2175 3.90517C14.0475 3.65376 14.7463 3.81277 15.3538 4.34437C15.7308 4.81322 17.2695 6.06336 16.4799 6.56531V6.56402ZM17.3487 4.87984C17.3238 4.86952 17.3198 4.85319 17.3367 4.83213C17.354 4.84675 17.37 4.86608 17.3487 4.88112V4.87984ZM15.6761 3.27L15.669 3.26484C15.669 3.26957 15.6663 3.27429 15.6645 3.27902L15.6761 3.27ZM12.0674 7.47681C12.0674 7.46864 12.0674 7.46649 12.0585 7.46778L12.0674 7.47681ZM3.77959 8.59158C3.77983 8.59616 3.77983 8.60075 3.77959 8.60533L3.7916 8.60232L3.77959 8.59158Z" fill="#0D0D0D"/>
<path d="M15.5354 13.3747C15.0156 14.431 13.8228 14.6055 12.7657 14.2402C12.8912 14.8264 13.6861 15.1663 14.2683 15.0408C11.4412 16.8887 11.8315 10.1374 8.3995 13.0356C7.82401 13.6691 7.05269 14.4456 6.20793 13.8212C5.77576 13.7047 4.69467 12.097 5.70232 12.6484C7.89611 13.709 8.45469 9.79616 10.4237 10.6814C10.1936 10.9088 9.71515 10.9131 9.52554 11.2711C9.31013 11.516 10.2461 11.4 10.4224 11.721C11.8618 13.1254 13.4939 14.9708 15.5354 13.3747Z" fill="#0D0D0D"/>
<path d="M12.3206 9.70677C13.537 11.464 15.9422 10.4288 17.2677 11.7167C15.5515 10.7528 13.4351 12.9002 12.0509 11.1237C11.556 10.326 11.0717 9.44764 9.96884 9.48116C8.69058 9.41326 8.282 10.8108 7.52091 11.5405C6.37172 12.8787 4.68532 11.9114 4.77434 10.32C6.05394 13.0829 7.50979 10.6827 8.8419 9.51339C10.2176 8.48457 11.5168 9.82367 12.3424 10.8486C12.8765 11.4073 13.8428 11.7146 14.5612 11.3501C13.5811 11.0906 12.6175 10.8551 12.3206 9.70677Z" fill="#0D0D0D"/>
<path d="M23.1645 16.3928C21.6829 16.2514 20.1678 16.7757 18.7498 17.1397C19.2501 18.4642 20.7286 17.303 21.7416 17.3215C21.8956 17.2433 22.5249 17.4178 22.1911 17.5437C21.6219 17.4801 21.0922 17.6915 20.5715 17.8806C19.6244 18.0525 20.7112 18.8488 21.0362 19.1595C21.7064 19.8751 24.3889 16.6747 23.1645 16.3928ZM21.9989 18.3159C21.9543 19.3542 20.2533 18.4088 20.6756 18.0555C21.0086 17.9902 22.0078 17.7044 21.9989 18.3159Z" fill="#0D0D0D"/>
<path d="M24.2879 9.18205C23.0021 7.68223 22.8076 9.53058 21.4697 9.63415C22.5254 10.5276 23.5206 8.22887 24.1984 9.93024C23.4106 9.02777 22.7399 10.372 21.8769 10.1125C21.3517 9.88856 20.6948 9.81464 20.3125 9.36813C20.1033 9.09696 19.8269 9.11286 19.5371 9.15584C19.3725 9.28777 18.1507 9.45666 18.5468 9.14509C18.8099 9.07242 19.0447 8.926 19.2216 8.72437C19.9034 8.24563 20.7793 9.19709 21.5533 9.15412C22.4827 9.22932 23.1463 6.70412 24.2879 9.18205Z" fill="#0D0D0D"/>
<path d="M11.9365 12.0055C14.1833 13.8882 14.5051 11.6785 16.5653 11.871C16.5351 11.9763 16.4683 11.9793 16.414 11.9883C15.7802 12.0824 15.4153 12.6033 14.9773 12.9956C13.9358 14.1542 12.285 13.2917 11.9365 12.0055Z" fill="#0D0D0D"/>
<path d="M22.1609 11.6849C22.237 11.8602 22.419 11.8633 22.5214 11.9664C20.8154 11.8087 21.5907 10.3716 18.7827 10.8164C21.1305 9.56582 21.5796 11.314 22.5975 11.1684C22.9495 11.0343 23.3154 10.8117 23.5611 11.2693C23.0016 11.0601 22.6558 11.5431 22.1609 11.6849Z" fill="#0D0D0D"/>
<path d="M8.7876 16.9214C8.93448 15.382 10.9489 16.0688 10.4299 17.3851C10.3854 17.453 10.3854 17.5871 10.4989 17.5664C11.0126 17.1904 10.8403 17.9163 10.6952 18.1483C10.381 18.6211 9.4935 18.3374 9.66574 17.7345C9.68978 17.3701 10.1531 16.9717 9.88205 16.6343C9.4757 16.2385 9.08403 16.6837 8.7876 16.9214Z" fill="#0D0D0D"/>
<path d="M9.69645 5.50856C10.3529 5.9916 11.0103 5.35901 11.6819 5.38909C10.9382 5.96151 10.2408 7.10808 9.19886 6.31863C8.6118 5.89877 7.9878 6.44025 7.42255 6.56746C7.62195 6.10677 7.90947 5.90908 8.37235 5.90823C8.85971 5.82657 10.2675 6.58508 10.3351 5.90823C10.1028 5.79993 9.81262 5.75137 9.69645 5.50856Z" fill="#0D0D0D"/>
<path d="M21.9935 12.4073C20.9943 12.8225 20.4424 11.7154 19.4566 11.8555C18.6919 11.9625 20.2684 12.9479 20.5332 13.0369C19.8211 13.1082 19.417 12.6175 19.0106 12.1284C18.9122 11.9789 18.343 11.8727 18.7128 11.7489C20.4878 11.0205 20.5648 12.0811 21.9935 12.4073Z" fill="#0D0D0D"/>
<path d="M20.0267 6.19444C20.7339 5.38565 21.9659 4.82827 22.9357 4.26057C23.3532 3.98768 23.7418 4.83944 23.3163 4.92023C22.1431 5.06248 21.0313 5.63662 20.0205 6.19487L20.0267 6.19444Z" fill="#0D0D0D"/>
<path d="M5.75351 9.96978C5.9124 10.0458 6.06996 10.1288 6.30095 10.0665C6.02768 9.82452 5.69387 9.6797 5.61509 9.35008C6.24443 9.92208 7.03934 9.87524 7.81956 9.77983C7.58678 10.6032 5.99296 10.8955 5.75351 9.96978Z" fill="#0D0D0D"/>
<path d="M16.4612 9.71709C17.4123 9.90489 18.1707 9.9672 19.0845 9.84816C18.4551 10.837 17.2249 10.5925 16.4612 9.71709Z" fill="#0D0D0D"/>
<path d="M9.39558 18.7831C9.81396 19.1367 10.2684 19.0435 10.7513 18.9077C11.0976 20.3925 8.96786 19.2627 8.98566 18.395C8.98566 18.395 9.23758 18.67 9.39558 18.7831Z" fill="#0D0D0D"/>
<path d="M24.3876 11.2775C23.6657 10.3927 22.958 10.88 22.1622 10.5994C22.9059 10.3978 24.2768 10.1271 24.3876 11.2775Z" fill="#0D0D0D"/>
<path d="M3.78893 8.60103L3.85391 8.55806C3.86682 8.64272 3.76579 8.56751 3.78893 8.60103Z" fill="#0D0D0D"/>
<path d="M15.6641 3.2816C15.6907 3.2792 15.7174 3.28644 15.7388 3.30192C15.7603 3.3174 15.7751 3.34002 15.7802 3.3654C15.7437 3.34262 15.7006 3.26183 15.6641 3.2816Z" fill="#0D0D0D"/>
<path d="M24.3222 10.0454C24.2826 10.0166 24.2407 9.92036 24.1984 9.93024C24.271 9.9397 24.2772 10.0093 24.3222 10.0454Z" fill="#0D0D0D"/>
<path d="M5.76241 9.97821L5.73081 9.99076C5.73882 9.98628 5.75573 9.96027 5.76241 9.97821Z" fill="#0D0D0D"/>
<path d="M15.5279 13.3833L15.523 13.3506C15.5256 13.3583 15.5417 13.3773 15.5279 13.3833Z" fill="#0D0D0D"/>
<path d="M5.02892 13.8345L5.05073 13.8079C5.04405 13.8152 5.04138 13.8358 5.02892 13.8345Z" fill="#0D0D0D"/>
<path d="M12.3407 9.70892L12.3144 9.72955C12.3794 9.7519 12.2962 9.69904 12.3407 9.70892Z" fill="#0D0D0D"/>
<path d="M5.63556 9.35309L5.60708 9.37544C5.67517 9.40165 5.59372 9.34106 5.63556 9.35309Z" fill="#0D0D0D"/>
<path d="M24.2723 9.1726C24.3315 9.16142 24.2843 9.22073 24.3012 9.16529C24.3066 9.14724 24.2812 9.14638 24.287 9.18119L24.2723 9.1726Z" fill="#0D0D0D"/>
<path d="M14.1935 8.46351L14.2033 8.49058C14.1984 8.48156 14.1744 8.47125 14.1935 8.46351Z" fill="#0D0D0D"/>
<path d="M12.0585 7.46778C12.0318 7.51978 12.1101 7.47466 12.0549 7.49787C12.0104 7.51291 12.0251 7.45489 12.0674 7.47681L12.0585 7.46778Z" fill="#0D0D0D"/>
<path d="M9.7147 5.51629C9.65551 5.52833 9.70447 5.46515 9.69289 5.52188C9.69022 5.53563 9.71248 5.5352 9.69957 5.50899L9.7147 5.51629Z" fill="#0D0D0D"/>
<path d="M15.7825 3.35509L15.7887 3.37572C15.8238 3.33704 15.7802 3.3697 15.7825 3.35509Z" fill="#0D0D0D"/>
<path d="M24.3079 10.0364L24.3315 10.0321C24.2906 9.99127 24.3369 10.06 24.3079 10.0364Z" fill="#0D0D0D"/>
</svg>
